<svg width="24" height="24" viewBox="0 0 24 24" fill="none" xmlns="http://www.w3.org/2000/svg">
<g clip-path="url(#clip0_4348_1363)">
<path d="M14 12C14 13.103 13.103 14 12 14C10.897 14 9.99998 13.103 9.99998 12C9.99998 10.897 10.897 10 12 10C13.103 10 14 10.897 14 12ZM24.001 15.548C24.001 17.611 22.701 19.492 20.767 20.229C19.426 20.741 18.159 21 16.999 21C15.365 21 13.901 20.601 12.486 20.215C11.138 19.847 9.86598 19.5 8.49998 19.5C6.92898 19.5 5.93798 19.601 5.08098 19.849C3.87498 20.196 2.60698 19.962 1.60098 19.205C0.583977 18.44 0.000976562 17.272 0.000976562 16V8.452C0.000976562 6.389 1.29998 4.508 3.23398 3.771C4.57498 3.259 5.84298 3 7.00198 3C8.63598 3 10.099 3.399 11.515 3.785C12.863 4.153 14.135 4.5 15.501 4.5C17.071 4.5 18.063 4.399 18.92 4.151C20.128 3.804 21.396 4.038 22.401 4.795C23.418 5.56 24.001 6.728 24.001 8V15.548ZM6.00098 14C6.00098 13.448 5.55298 13 5.00098 13C4.44898 13 4.00098 13.448 4.00098 14C4.00098 14.552 4.44898 15 5.00098 15C5.55298 15 6.00098 14.552 6.00098 14ZM6.00098 8C6.00098 7.448 5.55298 7 5.00098 7C4.44898 7 4.00098 7.448 4.00098 8C4.00098 8.552 4.44898 9 5.00098 9C5.55298 9 6.00098 8.552 6.00098 8ZM16.001 12C16.001 9.794 14.207 8 12.001 8C9.79498 8 8.00098 9.794 8.00098 12C8.00098 14.206 9.79498 16 12.001 16C14.207 16 16.001 14.206 16.001 12ZM20.001 16C20.001 15.448 19.553 15 19.001 15C18.449 15 18.001 15.448 18.001 16C18.001 16.552 18.449 17 19.001 17C19.553 17 20.001 16.552 20.001 16ZM20.001 10C20.001 9.448 19.553 9 19.001 9C18.449 9 18.001 9.448 18.001 10C18.001 10.552 18.449 11 19.001 11C19.553 11 20.001 10.552 20.001 10Z" fill="#4578E0"/>
</g>
<defs>
<clipPath id="clip0_4348_1363">
<rect width="24" height="24" fill="white"/>
</clipPath>
</defs>
</svg>
