<svg width="24" height="24" viewBox="0 0 24 24" fill="none" xmlns="http://www.w3.org/2000/svg">
<path d="M24 6.24555C24 13.8832 13.8716 24 6.24285 24C4.57312 24 3.01337 23.3702 1.86355 22.2206L0.86371 21.0709C-0.296104 19.9113 -0.296104 17.9519 0.913702 16.7423C0.943698 16.7123 3.35331 14.8629 3.35331 14.8629C4.55312 13.7232 6.44282 13.7232 7.63263 14.8629L9.09239 16.0325C12.2919 14.6729 14.5615 12.3936 16.0213 9.08466L14.8615 7.62512C13.7116 6.43549 13.7116 4.53608 14.8615 3.34645C14.8615 3.34645 16.7112 0.937207 16.7412 0.907217C17.951 -0.302406 19.9107 -0.302406 21.1205 0.907217L22.1703 1.81693C23.3701 3.00656 24 4.56607 24 6.23555V6.24555Z" fill="#4578E0"/>
</svg>
