<svg width="24" height="24" viewBox="0 0 24 24" fill="none" xmlns="http://www.w3.org/2000/svg">
<path d="M12 7V0.46C12.913 0.806 13.753 1.339 14.465 2.05L17.949 5.536C18.661 6.247 19.194 7.087 19.54 8H13C12.448 8 12 7.551 12 7ZM13.27 19.48C12.457 20.293 12 21.395 12 22.545V24H13.455C14.605 24 15.707 23.543 16.52 22.73L23.327 15.923C24.224 15.026 24.224 13.57 23.327 12.673C22.43 11.776 20.974 11.776 20.077 12.673L13.27 19.48ZM10 22.545C10 20.853 10.659 19.262 11.855 18.066L18.662 11.259C19.051 10.87 19.504 10.571 19.993 10.358C19.989 10.238 19.984 10.119 19.976 9.999H13C11.346 9.999 10 8.653 10 6.999V0.024C9.839 0.013 9.678 0 9.515 0H5C2.243 0 0 2.243 0 5V19C0 21.757 2.243 24 5 24H10V22.545Z" fill="#4578E0"/>
</svg>
